<?xml version="1.0" encoding="UTF-8"?><svg id="b" xmlns="http://www.w3.org/2000/svg" xmlns:xlink="http://www.w3.org/1999/xlink" viewBox="0 0 708 248"><defs><style>.p{fill:url(#j);}.q{fill:url(#g);}.r{fill:url(#m);}.s{fill:url(#h);}.t{fill:url(#i);}.u{fill:url(#o);}.v{fill:url(#k);}.w{fill:url(#n);}.x{fill:url(#l);}.y{fill:url(#f);}.z{letter-spacing:0em;}.aa{letter-spacing:0em;}.ab{letter-spacing:0em;}.ac{fill:#fff;filter:url(#d);}.ad{letter-spacing:0em;}.ae{letter-spacing:0em;}.af{letter-spacing:0em;}.ag{letter-spacing:0em;}.ah{letter-spacing:0em;}.ai{opacity:.42;}.aj{letter-spacing:0em;}.ak{letter-spacing:0em;}.al{fill:#a4a4a4;font-family:NanumSquareRoundOTFR-KSCpc-EUC-H, NanumSquareRoundOTF;font-size:11.34px;}.am{fill:#231f20;font-family:NanumSquareRoundOTFB-KSCpc-EUC-H, NanumSquareRoundOTF;font-size:14.17px;}.an{letter-spacing:0em;}.ao{letter-spacing:-.01em;}</style><filter id="d" filterUnits="userSpaceOnUse"><feOffset dx="3.6" dy="3.6"/><feGaussianBlur result="e" stdDeviation="5.76"/><feFlood flood-color="#000" flood-opacity=".35"/><feComposite in2="e" operator="in"/><feComposite in="SourceGraphic"/></filter><linearGradient id="f" x1="54.1" y1="131.18" x2="120.83" y2="131.18" gradientUnits="userSpaceOnUse"><stop offset="0" stop-color="#28ad70"/><stop offset=".88" stop-color="#46b760"/><stop offset="1" stop-color="#56bd56"/></linearGradient><linearGradient id="g" x1="75.65" y1="61.48" x2="99.97" y2="61.48" xlink:href="#f"/><linearGradient id="h" x1="127.31" y1="131.18" x2="194.03" y2="131.18" xlink:href="#f"/><linearGradient id="i" x1="148.85" y1="61.48" x2="173.17" y2="61.48" xlink:href="#f"/><linearGradient id="j" x1="200.42" y1="131.18" x2="267.14" y2="131.18" xlink:href="#f"/><linearGradient id="k" x1="221.97" y1="61.48" x2="246.29" y2="61.48" xlink:href="#f"/><linearGradient id="l" x1="273.25" y1="142.6" x2="325.5" y2="142.6" xlink:href="#f"/><linearGradient id="m" x1="290.13" y1="88.02" x2="309.17" y2="88.02" xlink:href="#f"/><linearGradient id="n" x1="332.67" y1="142.6" x2="384.92" y2="142.6" xlink:href="#f"/><linearGradient id="o" x1="349.54" y1="88.02" x2="368.58" y2="88.02" xlink:href="#f"/></defs><g id="c"><g><rect class="ac" x="13.83" y="13.69" width="672.65" height="212.45" rx="39.16" ry="39.16"/><g><path class="y" d="M100.65,135.26c-.5,.59-.39,1.42-.33,1.95,.43,3.67,4.73,40.39-4.51,45.91-1.5,.9-4.25,.81-9.74,.63-5.15-.17-7.73-.25-8.96-1.1-6.27-4.33-4.66-24.78-3.08-44.96,.02-.32,.09-1.18-.44-1.7-.24-.24-.55-.35-.87-.41-2.11-.36-11.53,.63-13.46-.41-.68-.37-1.22-.89-1.22-.89,0,0-.45-.43-.8-.97-6.37-9.82-1.11-30.01-1.11-30.01,2.23-8.55,3.34-12.83,6.41-16.24,7.14-7.92,17.97-8.27,24.16-8.46,6.17-.19,17.82-.56,25.52,7.51,3.39,3.55,4.48,7.44,6.65,15.22,0,0,5.34,19.15-1.69,32.03-.37,.69-.93,1.14-.93,1.14,0,0-.47,.39-1.08,.62-2.05,.78-12.54-2.24-14.54,.15Z"/><circle class="q" cx="87.81" cy="61.48" r="12.16"/></g><g><path class="s" d="M173.85,135.26c-.5,.59-.39,1.42-.33,1.95,.43,3.67,4.73,40.39-4.51,45.91-1.5,.9-4.25,.81-9.74,.63-5.15-.17-7.73-.25-8.96-1.1-6.27-4.33-4.66-24.78-3.08-44.96,.02-.32,.09-1.18-.44-1.7-.24-.24-.55-.35-.87-.41-2.11-.36-11.53,.63-13.46-.41-.68-.37-1.22-.89-1.22-.89,0,0-.45-.43-.8-.97-6.37-9.82-1.11-30.01-1.11-30.01,2.23-8.55,3.34-12.83,6.41-16.24,7.14-7.92,17.97-8.27,24.16-8.46,6.17-.19,17.82-.56,25.52,7.51,3.39,3.55,4.48,7.44,6.65,15.22,0,0,5.34,19.15-1.69,32.03-.37,.69-.93,1.14-.93,1.14,0,0-.47,.39-1.08,.62-2.05,.78-12.54-2.24-14.54,.15Z"/><circle class="t" cx="161.01" cy="61.48" r="12.16"/></g><g><path class="p" d="M246.97,135.26c-.5,.59-.39,1.42-.33,1.95,.43,3.67,4.73,40.39-4.51,45.91-1.5,.9-4.25,.81-9.74,.63-5.15-.17-7.73-.25-8.96-1.1-6.27-4.33-4.66-24.78-3.08-44.96,.02-.32,.09-1.18-.44-1.7-.24-.24-.55-.35-.87-.41-2.11-.36-11.53,.63-13.46-.41-.68-.37-1.22-.89-1.22-.89,0,0-.45-.43-.8-.97-6.37-9.82-1.11-30.01-1.11-30.01,2.23-8.55,3.34-12.83,6.41-16.24,7.14-7.92,17.97-8.27,24.16-8.46,6.17-.19,17.82-.56,25.52,7.51,3.39,3.55,4.48,7.44,6.65,15.22,0,0,5.34,19.15-1.69,32.03-.37,.69-.93,1.14-.93,1.14,0,0-.47,.39-1.08,.62-2.05,.78-12.54-2.24-14.54,.15Z"/><circle class="v" cx="234.13" cy="61.48" r="12.16"/></g><g class="ai"><path class="x" d="M309.7,145.8c-.39,.47-.3,1.11-.25,1.52,.34,2.87,3.7,31.63-3.53,35.95-1.17,.7-3.33,.63-7.63,.49-4.03-.13-6.05-.2-7.01-.86-4.91-3.39-3.65-19.41-2.41-35.21,.02-.25,.07-.92-.34-1.33-.19-.19-.43-.28-.68-.32-1.65-.28-9.03,.49-10.54-.32-.53-.29-.95-.7-.95-.7,0,0-.35-.34-.62-.76-4.99-7.69-.87-23.5-.87-23.5,1.74-6.7,2.62-10.05,5.02-12.72,5.59-6.21,14.07-6.47,18.92-6.63,4.83-.15,13.96-.44,19.99,5.88,2.66,2.78,3.51,5.83,5.21,11.92,0,0,4.18,15-1.32,25.09-.29,.54-.72,.89-.72,.89,0,0-.37,.3-.85,.49-1.61,.61-9.82-1.75-11.39,.12Z"/><circle class="r" cx="299.65" cy="88.02" r="9.52"/></g><g class="ai"><path class="w" d="M369.11,145.8c-.39,.47-.3,1.11-.25,1.52,.34,2.87,3.7,31.63-3.53,35.95-1.17,.7-3.33,.63-7.63,.49-4.03-.13-6.05-.2-7.01-.86-4.91-3.39-3.65-19.41-2.41-35.21,.02-.25,.07-.92-.34-1.33-.19-.19-.43-.28-.68-.32-1.65-.28-9.03,.49-10.54-.32-.53-.29-.95-.7-.95-.7,0,0-.35-.34-.62-.76-4.99-7.69-.87-23.5-.87-23.5,1.74-6.7,2.62-10.05,5.02-12.72,5.59-6.21,14.07-6.47,18.92-6.63,4.83-.15,13.96-.44,19.99,5.88,2.66,2.78,3.51,5.83,5.21,11.92,0,0,4.18,15-1.32,25.09-.29,.54-.72,.89-.72,.89,0,0-.37,.3-.85,.49-1.61,.61-9.82-1.75-11.39,.12Z"/><circle class="u" cx="359.06" cy="88.02" r="9.52"/></g><text class="al" transform="translate(503.27 59.76)"><tspan class="ae" x="0" y="0">3 out of 5 consumers ha</tspan><tspan class="af" x="128.66" y="0">v</tspan><tspan class="ak" x="134.42" y="0">e </tspan><tspan class="ab" x="-13.42" y="11.34">e</tspan><tspan class="ak" x="-7.1" y="11.34">x</tspan><tspan class="af" x="-1.3" y="11.34">p</tspan><tspan class="ak" x="5.36" y="11.34">erienc</tspan><tspan class="af" x="38.37" y="11.34">e</tspan><tspan class="ae" x="44.75" y="11.34">d discou</tspan><tspan class="aa" x="89.01" y="11.34">r</tspan><tspan class="ak" x="93.54" y="11.34">agement </tspan><tspan class="ae" x="-5.4" y="22.68">with the lack of in</tspan><tspan class="ag" x="88.17" y="22.68">f</tspan><tspan class="ae" x="92.31" y="22.68">ormation </tspan><tspan class="ae" x="11.52" y="34.02">the famers mar</tspan><tspan class="ao" x="93.52" y="34.02">k</tspan><tspan class="ae" x="99.57" y="34.02">et gi</tspan><tspan class="af" x="122.87" y="34.02">v</tspan><tspan class="ak" x="128.63" y="34.02">es </tspan><tspan class="z" x="14.49" y="45.35">r</tspan><tspan class="an" x="19.05" y="45.35">e</tspan><tspan class="ae" x="25.43" y="45.35">ga</tspan><tspan class="ad" x="38.42" y="45.35">r</tspan><tspan class="ae" x="42.98" y="45.35">ding the attending </tspan><tspan class="af" x="39.28" y="56.69">v</tspan><tspan class="ak" x="45.04" y="56.69">endors each </tspan><tspan class="ah" x="113.12" y="56.69">w</tspan><tspan class="an" x="121.82" y="56.69">e</tspan><tspan class="ae" x="128.2" y="56.69">ek </tspan></text><text class="am" transform="translate(573.99 165.59)"><tspan class="aj" x="0" y="0">C</tspan><tspan x="9.1" y="0">onsumer </tspan><tspan x="-50.37" y="17.01">Satisfaction Ratio</tspan></text></g></g></svg>