<?xml version="1.0" encoding="UTF-8"?><svg id="b" xmlns="http://www.w3.org/2000/svg" xmlns:xlink="http://www.w3.org/1999/xlink" viewBox="0 0 708 249"><defs><style>.j{fill:url(#g);}.k{fill:none;stroke:#bbb;stroke-linecap:round;stroke-linejoin:round;}.l{letter-spacing:0em;}.m{letter-spacing:0em;}.n{fill:#fff;filter:url(#d);}.o{letter-spacing:-.05em;}.p{letter-spacing:0em;}.q{letter-spacing:-.05em;}.r,.s{letter-spacing:0em;}.t{letter-spacing:-.01em;}.u{letter-spacing:0em;}.v{letter-spacing:0em;}.w{letter-spacing:0em;}.x{fill:url(#f);opacity:.21;}.y{letter-spacing:0em;}.z{fill:url(#i);opacity:.42;}.aa,.s{fill:#a4a4a4;font-family:NanumSquareRoundOTFR-KSCpc-EUC-H, NanumSquareRoundOTF;font-size:11.34px;}.ab{fill:#231f20;font-family:NanumSquareRoundOTFB-KSCpc-EUC-H, NanumSquareRoundOTF;font-size:14.17px;}.ac{fill:url(#h);opacity:.75;}.ad{letter-spacing:0em;}</style><filter id="d" filterUnits="userSpaceOnUse"><feOffset dx="3.6" dy="3.6"/><feGaussianBlur result="e" stdDeviation="5.76"/><feFlood flood-color="#000" flood-opacity=".35"/><feComposite in2="e" operator="in"/><feComposite in="SourceGraphic"/></filter><linearGradient id="f" x1="265.6" y1="120.53" x2="434.71" y2="120.53" gradientUnits="userSpaceOnUse"><stop offset="0" stop-color="#28ad70"/><stop offset=".88" stop-color="#46b760"/><stop offset="1" stop-color="#56bd56"/></linearGradient><linearGradient id="g" x1="278.97" y1="80" x2="427.01" y2="80" xlink:href="#f"/><linearGradient id="h" x1="292.4" y1="159.74" x2="428.03" y2="159.74" xlink:href="#f"/><linearGradient id="i" x1="271.43" y1="128.16" x2="343.02" y2="128.16" xlink:href="#f"/></defs><g id="c"><g><rect class="n" x="13.83" y="14.31" width="672.65" height="212.45" rx="39.16" ry="39.16"/><g><circle class="x" cx="350.15" cy="120.53" r="84.55"/><path class="j" d="M281.91,89.93c24.06,14.08,61.19,26.51,62.52,27.01,.98,.37,1.54,.58,1.58,.6,.03,.01,.33,.14,.76,.24,.31,.07,.54,.1,.62,.11,24.25,2.96,48.87-.01,73.3,.6,1.04,.03,3.73,.11,5.31-1.62,1.64-1.79,1.1-4.73-.31-10.77-1.73-7.47-2.6-11.2-3.27-13-15.6-41.7-55.28-50.62-55.28-50.62-23.01-5.17-41.62,2.71-48.18,5.61-22.28,9.82-43.44,31.46-39.51,39.52,.58,1.19,1.57,1.79,2.47,2.31Z"/><path class="ac" d="M292.42,171.81c.04-.34,.08-.63,.23-.96,.85-1.86,4.23-2.78,15.23-10.12,15.82-10.55,28.17-23.57,31.12-26.92,2.5-2.84,5.64-5.13,7.86-8.19,.42-.58,1.31-1.86,2.99-2.75,2.16-1.14,4.33-.92,4.94-.87,22.79,1.84,45.73,.15,68.6,.36,.49,0,1.49,.01,2.42,.63,5.13,3.43,.33,20.53-4.39,30.81-9.76,21.24-27.6,31.68-31.59,33.91-12.57,7.02-24.38,8.94-31.12,9.52-33.75,2.94-67.41-16.31-66.29-25.43Z"/><path class="z" d="M287.57,163.2c1.32,.27,2.42,.13,3.65-.11,9.84-1.92,16.24-8.08,25.55-14.97,7.32-5.42,15.37-10.52,22.16-18.03,1.82-2.02,4.95-5.76,3.86-8.75-.49-1.34-1.65-2.07-2.15-2.36-7.04-4.22-24.25-8.85-34.32-13.83-.37-.18-24.64-12.18-28.61-12.17,0,0-.03,0-.05,0-1.94,.11-4.27,4.17-5.48,13.43-.41,3.13-2.41,14.65,2.45,33.29,2.88,11.05,5.89,22.05,12.94,23.5Z"/></g><polyline class="k" points="393.08 73.66 437.12 59.93 471.69 59.93"/><polyline class="k" points="393.08 166.99 437.12 180.73 471.69 180.73"/><text class="s" transform="translate(441.52 54.25)"><tspan x="0" y="0">40%</tspan></text><text class="s" transform="translate(441.52 172.77)"><tspan x="0" y="0">35%</tspan></text><text class="aa" transform="translate(485.77 66.27)"><tspan class="o" x="0" y="0">V</tspan><tspan class="y" x="6.89" y="0">endors who do not ha</tspan><tspan class="ad" x="121.87" y="0">v</tspan><tspan class="r" x="127.63" y="0">e </tspan><tspan class="r" x="0" y="14.17">s</tspan><tspan class="ad" x="5.78" y="14.17">o</tspan><tspan class="r" x="12.42" y="14.17">cial m</tspan><tspan class="ad" x="43.3" y="14.17">e</tspan><tspan class="r" x="49.68" y="14.17">dia and utili</tspan><tspan class="m" x="110.71" y="14.17">z</tspan><tspan class="r" x="116.31" y="14.17">e emails </tspan><tspan class="w" x="0" y="28.35">f</tspan><tspan class="y" x="4.14" y="28.35">or communication </tspan></text><text class="aa" transform="translate(481.14 154.68)"><tspan class="o" x="0" y="0">V</tspan><tspan class="y" x="6.89" y="0">endors who primarily utili</tspan><tspan class="m" x="141.17" y="0">z</tspan><tspan class="r" x="146.77" y="0">e </tspan><tspan class="r" x="0" y="14.17">face</tspan><tspan class="u" x="22.82" y="14.17">bo</tspan><tspan class="y" x="36.12" y="14.17">ok to communicate </tspan><tspan class="r"><tspan x="0" y="28.35">with consumers</tspan></tspan></text><polyline class="k" points="286.05 113.67 242.01 127.4 207.44 127.4"/><text class="s" transform="translate(207.29 120.86)"><tspan x="0" y="0">20%</tspan></text><text class="aa" transform="translate(55.5 130.38)"><tspan class="o" x="0" y="0">V</tspan><tspan class="y" x="6.89" y="0">endors who primarily use </tspan><tspan class="r" x="-2.69" y="14.17">instag</tspan><tspan class="p" x="30.16" y="14.17">r</tspan><tspan class="r" x="34.68" y="14.17">am to communicate </tspan><tspan class="r" x="36.4" y="28.35">with users and </tspan><tspan class="u" x="116.88" y="28.35">p</tspan><tspan class="y" x="123.54" y="28.35">ost </tspan><tspan class="r"><tspan x="54.4" y="42.52">announcements</tspan></tspan></text><text class="ab" transform="translate(50.21 56.32)"><tspan x="0" y="0">Cur</tspan><tspan class="l" x="23.82" y="0">r</tspan><tspan x="29.78" y="0">ent </tspan><tspan class="q" x="55.77" y="0">V</tspan><tspan x="64.66" y="0">endor </tspan><tspan x="0" y="17.01">Mar</tspan><tspan class="t" x="26.18" y="17.01">k</tspan><tspan x="33.97" y="17.01">eting Plat</tspan><tspan class="v" x="98.45" y="17.01">f</tspan><tspan x="103.85" y="17.01">orms</tspan></text></g></g></svg>